<mxfile host="app.diagrams.net" modified="2021-04-05T15:21:29.306Z" agent="5.0 (Windows)" etag="OMNypjdZGptEq-xLx7mV" version="14.4.9" type="github">
  <diagram id="PCQ58YYebL1j8_6p8NTY" name="Page-1">
    <mxGraphModel dx="1497" dy="833" grid="0" gridSize="10" guides="1" tooltips="1" connect="1" arrows="1" fold="1" page="0" pageScale="1" pageWidth="850" pageHeight="1100" math="0" shadow="0">
      <root>
        <mxCell id="0" />
        <mxCell id="1" parent="0" />
        <mxCell id="gdBt45IGn8SjIjo88xXn-16" style="edgeStyle=orthogonalEdgeStyle;rounded=0;orthogonalLoop=1;jettySize=auto;html=1;entryX=0.159;entryY=0.997;entryDx=0;entryDy=0;entryPerimeter=0;endArrow=none;endFill=0;" parent="1" source="9kYQHJIdZvFuiitPSYiP-5" target="5m66WqZjrvTX8Qn4TSuP-7" edge="1">
          <mxGeometry relative="1" as="geometry">
            <Array as="points">
              <mxPoint x="100" y="778" />
              <mxPoint x="100" y="778" />
            </Array>
          </mxGeometry>
        </mxCell>
        <mxCell id="9kYQHJIdZvFuiitPSYiP-5" value="Employee" style="swimlane;fontStyle=1;align=center;verticalAlign=top;childLayout=stackLayout;horizontal=1;startSize=26;horizontalStack=0;resizeParent=1;resizeParentMax=0;resizeLast=0;collapsible=1;marginBottom=0;" parent="1" vertex="1">
          <mxGeometry x="22" y="788" width="171" height="170" as="geometry" />
        </mxCell>
        <mxCell id="9kYQHJIdZvFuiitPSYiP-6" value="-employeeId: int&#xa;-employeeName: string&#xa;-presentProjects: list&#xa;-presentActivityList: list&#xa;" style="text;strokeColor=none;fillColor=none;align=left;verticalAlign=top;spacingLeft=4;spacingRight=4;overflow=hidden;rotatable=0;points=[[0,0.5],[1,0.5]];portConstraint=eastwest;" parent="9kYQHJIdZvFuiitPSYiP-5" vertex="1">
          <mxGeometry y="26" width="171" height="84" as="geometry" />
        </mxCell>
        <mxCell id="9kYQHJIdZvFuiitPSYiP-7" value="" style="line;strokeWidth=1;fillColor=none;align=left;verticalAlign=middle;spacingTop=-1;spacingLeft=3;spacingRight=3;rotatable=0;labelPosition=right;points=[];portConstraint=eastwest;" parent="9kYQHJIdZvFuiitPSYiP-5" vertex="1">
          <mxGeometry y="110" width="171" height="8" as="geometry" />
        </mxCell>
        <mxCell id="9kYQHJIdZvFuiitPSYiP-8" value="canBeAssigned()" style="text;strokeColor=none;fillColor=none;align=left;verticalAlign=top;spacingLeft=4;spacingRight=4;overflow=hidden;rotatable=0;points=[[0,0.5],[1,0.5]];portConstraint=eastwest;" parent="9kYQHJIdZvFuiitPSYiP-5" vertex="1">
          <mxGeometry y="118" width="171" height="52" as="geometry" />
        </mxCell>
        <mxCell id="9kYQHJIdZvFuiitPSYiP-13" value="Administrator" style="swimlane;fontStyle=1;align=center;verticalAlign=top;childLayout=stackLayout;horizontal=1;startSize=26;horizontalStack=0;resizeParent=1;resizeParentMax=0;resizeLast=0;collapsible=1;marginBottom=0;" parent="1" vertex="1">
          <mxGeometry x="224" y="788" width="160" height="94" as="geometry" />
        </mxCell>
        <mxCell id="9kYQHJIdZvFuiitPSYiP-14" value="-administratorID: int&#xa;-administratorName: string" style="text;strokeColor=none;fillColor=none;align=left;verticalAlign=top;spacingLeft=4;spacingRight=4;overflow=hidden;rotatable=0;points=[[0,0.5],[1,0.5]];portConstraint=eastwest;" parent="9kYQHJIdZvFuiitPSYiP-13" vertex="1">
          <mxGeometry y="26" width="160" height="34" as="geometry" />
        </mxCell>
        <mxCell id="9kYQHJIdZvFuiitPSYiP-15" value="" style="line;strokeWidth=1;fillColor=none;align=left;verticalAlign=middle;spacingTop=-1;spacingLeft=3;spacingRight=3;rotatable=0;labelPosition=right;points=[];portConstraint=eastwest;" parent="9kYQHJIdZvFuiitPSYiP-13" vertex="1">
          <mxGeometry y="60" width="160" height="8" as="geometry" />
        </mxCell>
        <mxCell id="9kYQHJIdZvFuiitPSYiP-16" value="-boolean isLoggedIn()" style="text;strokeColor=none;fillColor=none;align=left;verticalAlign=top;spacingLeft=4;spacingRight=4;overflow=hidden;rotatable=0;points=[[0,0.5],[1,0.5]];portConstraint=eastwest;" parent="9kYQHJIdZvFuiitPSYiP-13" vertex="1">
          <mxGeometry y="68" width="160" height="26" as="geometry" />
        </mxCell>
        <mxCell id="gdBt45IGn8SjIjo88xXn-7" style="edgeStyle=orthogonalEdgeStyle;rounded=0;orthogonalLoop=1;jettySize=auto;html=1;endArrow=none;endFill=0;" parent="1" source="9kYQHJIdZvFuiitPSYiP-17" target="5m66WqZjrvTX8Qn4TSuP-7" edge="1">
          <mxGeometry relative="1" as="geometry">
            <Array as="points">
              <mxPoint x="680" y="463" />
            </Array>
          </mxGeometry>
        </mxCell>
        <mxCell id="Z2eDdZwGfHTgbIGuZqVt-8" style="edgeStyle=orthogonalEdgeStyle;rounded=0;orthogonalLoop=1;jettySize=auto;html=1;entryX=0.644;entryY=0.005;entryDx=0;entryDy=0;entryPerimeter=0;endArrow=block;endFill=0;strokeWidth=2;" edge="1" parent="1" target="Z2eDdZwGfHTgbIGuZqVt-1">
          <mxGeometry relative="1" as="geometry">
            <mxPoint x="740" y="689" as="sourcePoint" />
          </mxGeometry>
        </mxCell>
        <mxCell id="9kYQHJIdZvFuiitPSYiP-17" value="Project" style="swimlane;fontStyle=1;align=center;verticalAlign=top;childLayout=stackLayout;horizontal=1;startSize=26;horizontalStack=0;resizeParent=1;resizeParentMax=0;resizeLast=0;collapsible=1;marginBottom=0;" parent="1" vertex="1">
          <mxGeometry x="560" y="500" width="260" height="189" as="geometry">
            <mxRectangle x="420" y="300" width="70" height="26" as="alternateBounds" />
          </mxGeometry>
        </mxCell>
        <mxCell id="9kYQHJIdZvFuiitPSYiP-18" value="-helpNeeded : list&#xa;-ProjectManager: Employee&#xa;" style="text;strokeColor=none;fillColor=none;align=left;verticalAlign=top;spacingLeft=4;spacingRight=4;overflow=hidden;rotatable=0;points=[[0,0.5],[1,0.5]];portConstraint=eastwest;" parent="9kYQHJIdZvFuiitPSYiP-17" vertex="1">
          <mxGeometry y="26" width="260" height="49" as="geometry" />
        </mxCell>
        <mxCell id="9kYQHJIdZvFuiitPSYiP-19" value="" style="line;strokeWidth=1;fillColor=none;align=left;verticalAlign=middle;spacingTop=-1;spacingLeft=3;spacingRight=3;rotatable=0;labelPosition=right;points=[];portConstraint=eastwest;" parent="9kYQHJIdZvFuiitPSYiP-17" vertex="1">
          <mxGeometry y="75" width="260" height="10" as="geometry" />
        </mxCell>
        <mxCell id="9kYQHJIdZvFuiitPSYiP-20" value="+addActivity(a: Activity)&#xa;+removeActivity(a: Activity)&#xa;+setProjectManager(a: Employee)&#xa;+isProjectManager(e: Employee)&#xa;+addEmployeeToActivity(a:activity, e: Employee)&#xa;&#xa;&#xa;&#xa;&#xa;&#xa;" style="text;strokeColor=none;fillColor=none;align=left;verticalAlign=top;spacingLeft=4;spacingRight=4;overflow=hidden;rotatable=0;points=[[0,0.5],[1,0.5]];portConstraint=eastwest;" parent="9kYQHJIdZvFuiitPSYiP-17" vertex="1">
          <mxGeometry y="85" width="260" height="104" as="geometry" />
        </mxCell>
        <mxCell id="9kYQHJIdZvFuiitPSYiP-21" value="Activity" style="swimlane;fontStyle=1;align=center;verticalAlign=top;childLayout=stackLayout;horizontal=1;startSize=26;horizontalStack=0;resizeParent=1;resizeParentMax=0;resizeLast=0;collapsible=1;marginBottom=0;" parent="1" vertex="1">
          <mxGeometry x="399" y="827" width="165" height="115" as="geometry" />
        </mxCell>
        <mxCell id="9kYQHJIdZvFuiitPSYiP-22" value="-consumedTime: list&#xa;&#xa;" style="text;strokeColor=none;fillColor=none;align=left;verticalAlign=top;spacingLeft=4;spacingRight=4;overflow=hidden;rotatable=0;points=[[0,0.5],[1,0.5]];portConstraint=eastwest;" parent="9kYQHJIdZvFuiitPSYiP-21" vertex="1">
          <mxGeometry y="26" width="165" height="38" as="geometry" />
        </mxCell>
        <mxCell id="9kYQHJIdZvFuiitPSYiP-23" value="" style="line;strokeWidth=1;fillColor=none;align=left;verticalAlign=middle;spacingTop=-1;spacingLeft=3;spacingRight=3;rotatable=0;labelPosition=right;points=[];portConstraint=eastwest;" parent="9kYQHJIdZvFuiitPSYiP-21" vertex="1">
          <mxGeometry y="64" width="165" height="20" as="geometry" />
        </mxCell>
        <mxCell id="9kYQHJIdZvFuiitPSYiP-24" value="+registerSpentTime(time)&#xa;&#xa;&#xa;" style="text;strokeColor=none;fillColor=none;align=left;verticalAlign=top;spacingLeft=4;spacingRight=4;overflow=hidden;rotatable=0;points=[[0,0.5],[1,0.5]];portConstraint=eastwest;" parent="9kYQHJIdZvFuiitPSYiP-21" vertex="1">
          <mxGeometry y="84" width="165" height="31" as="geometry" />
        </mxCell>
        <mxCell id="gdBt45IGn8SjIjo88xXn-4" style="edgeStyle=orthogonalEdgeStyle;rounded=0;orthogonalLoop=1;jettySize=auto;html=1;entryX=1;entryY=0.097;entryDx=0;entryDy=0;entryPerimeter=0;endArrow=none;endFill=0;exitX=0.005;exitY=0.146;exitDx=0;exitDy=0;exitPerimeter=0;" parent="1" source="9kYQHJIdZvFuiitPSYiP-28" target="5m66WqZjrvTX8Qn4TSuP-7" edge="1">
          <mxGeometry relative="1" as="geometry" />
        </mxCell>
        <mxCell id="9kYQHJIdZvFuiitPSYiP-25" value="RegisterTime" style="swimlane;fontStyle=1;align=center;verticalAlign=top;childLayout=stackLayout;horizontal=1;startSize=26;horizontalStack=0;resizeParent=1;resizeParentMax=0;resizeLast=0;collapsible=1;marginBottom=0;" parent="1" vertex="1">
          <mxGeometry x="589" y="277" width="220" height="160" as="geometry" />
        </mxCell>
        <mxCell id="9kYQHJIdZvFuiitPSYiP-26" value="calendar: GregorianCalendar&#xa;begunActivity: list&#xa;" style="text;strokeColor=none;fillColor=none;align=left;verticalAlign=top;spacingLeft=4;spacingRight=4;overflow=hidden;rotatable=0;points=[[0,0.5],[1,0.5]];portConstraint=eastwest;" parent="9kYQHJIdZvFuiitPSYiP-25" vertex="1">
          <mxGeometry y="26" width="220" height="44" as="geometry" />
        </mxCell>
        <mxCell id="9kYQHJIdZvFuiitPSYiP-27" value="" style="line;strokeWidth=1;fillColor=none;align=left;verticalAlign=middle;spacingTop=-1;spacingLeft=3;spacingRight=3;rotatable=0;labelPosition=right;points=[];portConstraint=eastwest;" parent="9kYQHJIdZvFuiitPSYiP-25" vertex="1">
          <mxGeometry y="70" width="220" height="8" as="geometry" />
        </mxCell>
        <mxCell id="9kYQHJIdZvFuiitPSYiP-28" value="registerTime():&#xa;getTime(): Calendar&#xa;setBeginTime(a: Activity, employee)&#xa;setFinishedTime(a: Activity, employee)&#xa;" style="text;strokeColor=none;fillColor=none;align=left;verticalAlign=top;spacingLeft=4;spacingRight=4;overflow=hidden;rotatable=0;points=[[0,0.5],[1,0.5]];portConstraint=eastwest;" parent="9kYQHJIdZvFuiitPSYiP-25" vertex="1">
          <mxGeometry y="78" width="220" height="82" as="geometry" />
        </mxCell>
        <mxCell id="5m66WqZjrvTX8Qn4TSuP-4" value="TimeManagement" style="swimlane;fontStyle=1;align=center;verticalAlign=top;childLayout=stackLayout;horizontal=1;startSize=26;horizontalStack=0;resizeParent=1;resizeParentMax=0;resizeLast=0;collapsible=1;marginBottom=0;" parent="1" vertex="1">
          <mxGeometry x="20" y="199" width="503" height="518" as="geometry" />
        </mxCell>
        <mxCell id="5m66WqZjrvTX8Qn4TSuP-5" value="-employeeList: list&#xa;-projectList: list&#xa;-registerTime: RegisterTime&#xa;-activityList: Activity&#xa;-administrator logged in: boolean&#xa;&#xa;" style="text;strokeColor=none;fillColor=none;align=left;verticalAlign=top;spacingLeft=4;spacingRight=4;overflow=hidden;rotatable=0;points=[[0,0.5],[1,0.5]];portConstraint=eastwest;" parent="5m66WqZjrvTX8Qn4TSuP-4" vertex="1">
          <mxGeometry y="26" width="503" height="74" as="geometry" />
        </mxCell>
        <mxCell id="5m66WqZjrvTX8Qn4TSuP-6" value="" style="line;strokeWidth=1;fillColor=none;align=left;verticalAlign=middle;spacingTop=-1;spacingLeft=3;spacingRight=3;rotatable=0;labelPosition=right;points=[];portConstraint=eastwest;" parent="5m66WqZjrvTX8Qn4TSuP-4" vertex="1">
          <mxGeometry y="100" width="503" height="30" as="geometry" />
        </mxCell>
        <mxCell id="5m66WqZjrvTX8Qn4TSuP-7" value="+adminLogin(password:String)&#xa;+adminLogout()&#xa;&#xa;+adminLoggedIn()&#xa;+createEmployee(a: Employee)&#xa;+removeEmployee(a: Employee)&#xa;+employeeRegistered(e: Employee)&#xa;+addActivity(a: Activity, b: Project, c: Employee)&#xa;+removeActivity(a: Activity, b: Project, c: Employee)&#xa;+createActivity(name: String)&#xa;+removeProject(a:Project b: Employee)&#xa;+createProject(name: String)&#xa;+deleteActivity(id: String)&#xa;+addEmployeeToActivity(a: Employee, b: Project, c: Activity,, d: Employee)&#xa;+removeEmployeeFromActivity(a: Employee, b: Activity, c: Employee)&#xa;+addEmployeeToProject(a: Employee, b: Project, c: Employee)&#xa;+removeEmployeeFromProject(a: Employee, b: Project, c: Employee)&#xa;+beginWorkOnActivity(a: Employee, b: Activity)&#xa;+stopWorkOnActivity(a: Employee, b: Activity)&#xa;+requestVacation(a: Employee, start: Calendar, end: Calendar)&#xa;+registerSickBegin(a: Employee, b: Calendar)&#xa;+registerSickEnd(a: Employee, b: Calendar)&#xa;+listAvailableEmployees(search: String)&#xa;+listEmployeesOnProject(projectID: String)&#xa;+createTimeReport(a: Project b: Employee)&#xa;+seekHelpOnActivity(a: Activity b: Employee)&#xa;&#xa;&#xa;&#xa;&#xa;" style="text;strokeColor=none;fillColor=none;align=left;verticalAlign=top;spacingLeft=4;spacingRight=4;overflow=hidden;rotatable=0;points=[[0,0.5],[1,0.5]];portConstraint=eastwest;" parent="5m66WqZjrvTX8Qn4TSuP-4" vertex="1">
          <mxGeometry y="130" width="503" height="388" as="geometry" />
        </mxCell>
        <mxCell id="gdBt45IGn8SjIjo88xXn-5" value="1&amp;nbsp; &amp;nbsp;&amp;nbsp; &amp;nbsp; 1" style="text;html=1;strokeColor=none;fillColor=none;align=center;verticalAlign=middle;whiteSpace=wrap;rounded=0;" parent="1" vertex="1">
          <mxGeometry x="530" y="330" width="59" height="30" as="geometry" />
        </mxCell>
        <mxCell id="gdBt45IGn8SjIjo88xXn-8" value="1" style="text;html=1;strokeColor=none;fillColor=none;align=center;verticalAlign=middle;whiteSpace=wrap;rounded=0;" parent="1" vertex="1">
          <mxGeometry x="530" y="470" width="40" height="20" as="geometry" />
        </mxCell>
        <mxCell id="gdBt45IGn8SjIjo88xXn-9" value="0..*" style="text;html=1;strokeColor=none;fillColor=none;align=center;verticalAlign=middle;whiteSpace=wrap;rounded=0;" parent="1" vertex="1">
          <mxGeometry x="640" y="470" width="40" height="20" as="geometry" />
        </mxCell>
        <mxCell id="gdBt45IGn8SjIjo88xXn-11" value="&lt;div&gt;1&lt;/div&gt;&lt;div&gt;&lt;br&gt;&lt;/div&gt;&lt;div&gt;0..*&lt;br&gt;&lt;/div&gt;" style="text;html=1;strokeColor=none;fillColor=none;align=center;verticalAlign=middle;whiteSpace=wrap;rounded=0;" parent="1" vertex="1">
          <mxGeometry x="570" y="708" width="40" height="40" as="geometry" />
        </mxCell>
        <mxCell id="gdBt45IGn8SjIjo88xXn-13" value="" style="endArrow=none;html=1;exitX=0.606;exitY=1.002;exitDx=0;exitDy=0;exitPerimeter=0;entryX=0.633;entryY=-0.006;entryDx=0;entryDy=0;entryPerimeter=0;endFill=0;" parent="1" source="5m66WqZjrvTX8Qn4TSuP-7" target="9kYQHJIdZvFuiitPSYiP-13" edge="1">
          <mxGeometry width="50" height="50" relative="1" as="geometry">
            <mxPoint x="560" y="610" as="sourcePoint" />
            <mxPoint x="610" y="560" as="targetPoint" />
          </mxGeometry>
        </mxCell>
        <mxCell id="gdBt45IGn8SjIjo88xXn-14" value="&lt;div&gt;1&lt;/div&gt;&lt;div&gt;&lt;br&gt;&lt;/div&gt;&lt;div&gt;&lt;br&gt;&lt;/div&gt;&lt;div&gt;1..*&lt;br&gt;&lt;/div&gt;" style="text;html=1;strokeColor=none;fillColor=none;align=center;verticalAlign=middle;whiteSpace=wrap;rounded=0;" parent="1" vertex="1">
          <mxGeometry x="322" y="724" width="50" height="50" as="geometry" />
        </mxCell>
        <mxCell id="gdBt45IGn8SjIjo88xXn-17" value="&lt;div&gt;1&lt;/div&gt;&lt;div&gt;&lt;br&gt;&lt;/div&gt;&lt;div&gt;0..*&lt;br&gt;&lt;/div&gt;" style="text;html=1;strokeColor=none;fillColor=none;align=center;verticalAlign=middle;whiteSpace=wrap;rounded=0;" parent="1" vertex="1">
          <mxGeometry x="94" y="729" width="70" height="40" as="geometry" />
        </mxCell>
        <mxCell id="Z2eDdZwGfHTgbIGuZqVt-1" value="ActivityAndProjectParent" style="swimlane;fontStyle=1;align=center;verticalAlign=top;childLayout=stackLayout;horizontal=1;startSize=26;horizontalStack=0;resizeParent=1;resizeParentMax=0;resizeLast=0;collapsible=1;marginBottom=0;" vertex="1" parent="1">
          <mxGeometry x="622" y="807" width="183" height="211" as="geometry" />
        </mxCell>
        <mxCell id="Z2eDdZwGfHTgbIGuZqVt-2" value="-id: String&#xa;-name: String&#xa;-description: String&#xa;-employees: list&#xa;" style="text;strokeColor=none;fillColor=none;align=left;verticalAlign=top;spacingLeft=4;spacingRight=4;overflow=hidden;rotatable=0;points=[[0,0.5],[1,0.5]];portConstraint=eastwest;" vertex="1" parent="Z2eDdZwGfHTgbIGuZqVt-1">
          <mxGeometry y="26" width="183" height="75" as="geometry" />
        </mxCell>
        <mxCell id="Z2eDdZwGfHTgbIGuZqVt-3" value="" style="line;strokeWidth=1;fillColor=none;align=left;verticalAlign=middle;spacingTop=-1;spacingLeft=3;spacingRight=3;rotatable=0;labelPosition=right;points=[];portConstraint=eastwest;" vertex="1" parent="Z2eDdZwGfHTgbIGuZqVt-1">
          <mxGeometry y="101" width="183" height="8" as="geometry" />
        </mxCell>
        <mxCell id="Z2eDdZwGfHTgbIGuZqVt-4" value="+setExpectedTime(a:RegisterTime)&#xa;+addEmployee(a: Employee)&#xa;+listEmployees()&#xa;+createTimeReport()&#xa;&#xa;&#xa;" style="text;strokeColor=none;fillColor=none;align=left;verticalAlign=top;spacingLeft=4;spacingRight=4;overflow=hidden;rotatable=0;points=[[0,0.5],[1,0.5]];portConstraint=eastwest;" vertex="1" parent="Z2eDdZwGfHTgbIGuZqVt-1">
          <mxGeometry y="109" width="183" height="102" as="geometry" />
        </mxCell>
        <mxCell id="Z2eDdZwGfHTgbIGuZqVt-6" value="" style="endArrow=open;dashed=1;html=1;dashPattern=1 3;strokeWidth=2;endFill=0;entryX=1;entryY=0;entryDx=0;entryDy=0;" edge="1" parent="1" target="9kYQHJIdZvFuiitPSYiP-21">
          <mxGeometry width="50" height="50" relative="1" as="geometry">
            <mxPoint x="564" y="694" as="sourcePoint" />
            <mxPoint x="597" y="826" as="targetPoint" />
          </mxGeometry>
        </mxCell>
        <mxCell id="Z2eDdZwGfHTgbIGuZqVt-9" style="edgeStyle=orthogonalEdgeStyle;rounded=0;orthogonalLoop=1;jettySize=auto;html=1;endArrow=block;endFill=0;strokeWidth=2;" edge="1" parent="1">
          <mxGeometry relative="1" as="geometry">
            <mxPoint x="564" y="871" as="sourcePoint" />
            <mxPoint x="622" y="871" as="targetPoint" />
          </mxGeometry>
        </mxCell>
      </root>
    </mxGraphModel>
  </diagram>
</mxfile>
